<?xml version="1.0" encoding="UTF-8" standalone="no"?>
<!-- Created with Inkscape (http://www.inkscape.org/) -->

<svg
   xmlns:dc="http://purl.org/dc/elements/1.1/"
   xmlns:cc="http://creativecommons.org/ns#"
   xmlns:rdf="http://www.w3.org/1999/02/22-rdf-syntax-ns#"
   xmlns:svg="http://www.w3.org/2000/svg"
   xmlns="http://www.w3.org/2000/svg"
   xmlns:sodipodi="http://sodipodi.sourceforge.net/DTD/sodipodi-0.dtd"
   xmlns:inkscape="http://www.inkscape.org/namespaces/inkscape"
   width="193.1759mm"
   height="18.958271mm"
   viewBox="0 0 193.1759 18.958271"
   version="1.1"
   id="svg1647"
   inkscape:version="0.92.2 5c3e80d, 2017-08-06"
   sodipodi:docname="drawing.svg">
  <defs
     id="defs1641" />
  <sodipodi:namedview
     id="base"
     pagecolor="#ffffff"
     bordercolor="#666666"
     borderopacity="1.0"
     inkscape:pageopacity="0.0"
     inkscape:pageshadow="2"
     inkscape:zoom="1"
     inkscape:cx="-166.33927"
     inkscape:cy="-161.22544"
     inkscape:document-units="mm"
     inkscape:current-layer="text2194"
     showgrid="false"
     inkscape:window-width="2560"
     inkscape:window-height="1367"
     inkscape:window-x="0"
     inkscape:window-y="0"
     inkscape:window-maximized="1" />
  <metadata
     id="metadata1644">
    <rdf:RDF>
      <cc:Work
         rdf:about="">
        <dc:format>image/svg+xml</dc:format>
        <dc:type
           rdf:resource="http://purl.org/dc/dcmitype/StillImage" />
        <dc:title></dc:title>
      </cc:Work>
    </rdf:RDF>
  </metadata>
  <g
     inkscape:label="Layer 1"
     inkscape:groupmode="layer"
     id="layer1"
     transform="translate(-7.0256271,-87.217499)">
    <g
       aria-label="Joseph F. DePumpo III"
       style="font-style:normal;font-variant:normal;font-weight:bold;font-stretch:normal;font-size:19.40277863px;line-height:1.25;font-family:roboto;-inkscape-font-specification:'roboto Bold';letter-spacing:0px;word-spacing:0px;fill:none;fill-opacity:1;stroke:#01a95b;stroke-width:0.465;stroke-miterlimit:4;stroke-dasharray:none;stroke-opacity:1;image-rendering:auto"
       id="text2194">
      <path
         id="path2230"
         style="font-style:normal;font-variant:normal;font-weight:bold;font-stretch:normal;font-size:19.40277863px;font-family:roboto;-inkscape-font-specification:'roboto Bold';fill:none;stroke:#01a95b;stroke-width:0.465;stroke-miterlimit:4;stroke-dasharray:none;stroke-opacity:1"
         d="m 199.96903,102.00208 h -2.84221 V 88.20792 h 2.84221 z m -5.64652,0 h -2.8422 V 88.20792 h 2.8422 z m -5.64651,0 h -2.84221 V 88.20792 h 2.84221 z m -19.46909,-5.220178 q 0,-1.525316 0.58738,-2.719042 0.58739,-1.193726 1.68638,-1.847433 1.10846,-0.653707 2.56746,-0.653707 2.0748,0 3.38222,1.269518 1.31689,1.269518 1.46847,3.448541 l 0.0189,0.701077 q 0,2.359029 -1.31689,3.789604 -1.31689,1.4211 -3.53381,1.4211 -2.21692,0 -3.54328,-1.4211 -1.31688,-1.421101 -1.31688,-3.865396 z m 2.73798,0.198954 q 0,1.458998 0.5495,2.235867 0.54949,0.767395 1.57268,0.767395 0.99478,0 1.55374,-0.757921 0.55897,-0.767395 0.55897,-2.444295 0,-1.430576 -0.55897,-2.216919 -0.55896,-0.786343 -1.57268,-0.786343 -1.00425,0 -1.55374,0.786343 -0.5495,0.776869 -0.5495,2.415873 z m -3.99803,-0.0095 q 0,2.368503 -1.08004,3.799074 -1.07056,1.4211 -2.89904,1.4211 -1.55374,0 -2.51062,-1.08003 v 4.83174 h -2.73799 V 91.751201 h 2.53904 l 0.0947,1.004245 q 0.99477,-1.193726 2.59588,-1.193726 1.8948,0 2.94642,1.402154 1.05161,1.402154 1.05161,3.865398 z m -2.73799,-0.198954 q 0,-1.430576 -0.51159,-2.207445 -0.50213,-0.776869 -1.46848,-0.776869 -1.28846,0 -1.77164,0.985297 v 4.196988 q 0.50213,1.013719 1.79059,1.013719 1.96112,0 1.96112,-3.21169 z m -20.71019,-5.021227 0.0853,1.146355 q 1.08951,-1.335836 2.94642,-1.335836 1.98006,0 2.71904,1.563213 1.08004,-1.563213 3.07905,-1.563213 1.66743,0 2.48219,0.975824 0.81477,0.966349 0.81477,2.917996 v 6.546536 h -2.74747 v -6.537062 q 0,-0.871609 -0.34106,-1.269518 -0.34106,-0.407382 -1.2032,-0.407382 -1.23162,0 -1.70532,1.174777 l 0.009,7.039185 h -2.73799 v -6.527588 q 0,-0.890557 -0.35054,-1.288466 -0.35053,-0.397908 -1.19372,-0.397908 -1.1653,0 -1.68638,0.966349 v 7.247613 h -2.73799 V 91.751201 Z m -7.30446,9.208735 q -1.01372,1.23162 -2.80431,1.23162 -1.64848,0 -2.52009,-0.9474 -0.86213,-0.9474 -0.88108,-2.77588 v -6.717075 h 2.73799 v 6.622335 q 0,1.601108 1.459,1.601108 1.39268,0 1.91375,-0.966349 v -7.257094 h 2.74746 v 10.250875 h -2.57693 z m -15.62265,-3.818022 v 4.860162 h -2.84221 V 88.20792 h 5.38124 q 1.55374,0 2.72852,0.568441 1.18425,0.56844 1.81901,1.620056 0.63476,1.042141 0.63476,2.377977 0,2.027439 -1.39268,3.202217 -1.38321,1.165303 -3.83698,1.165303 z m 0,-2.302185 h 2.53903 q 1.12741,0 1.7148,-0.530545 0.59686,-0.530544 0.59686,-1.515842 0,-1.013719 -0.59686,-1.639004 -0.59686,-0.625285 -1.64848,-0.644233 h -2.60535 z m -8.80136,7.351827 q -2.25482,0 -3.67592,-1.3832 -1.41163,-1.383205 -1.41163,-3.68539 v -0.265272 q 0,-1.544264 0.59687,-2.756938 0.59686,-1.222148 1.68637,-1.875855 1.09899,-0.663181 2.50114,-0.663181 2.10323,0 3.30643,1.326362 1.21267,1.326362 1.21267,3.761183 v 1.117934 h -6.52759 q 0.13264,1.004245 0.79582,1.610582 0.67265,0.606337 1.69585,0.606337 1.58216,0 2.47271,-1.146356 l 1.34531,1.506364 q -0.61581,0.87161 -1.66742,1.36426 -1.05162,0.48317 -2.33061,0.48317 z m -0.31264,-8.412916 q -0.81477,0 -1.32637,0.549492 -0.50212,0.549493 -0.64423,1.572686 h 3.80856 V 95.68289 q -0.019,-0.909505 -0.49265,-1.402154 -0.4737,-0.502122 -1.34531,-0.502122 z M 95.612772,102.00205 V 88.20792 h 4.244358 q 1.81901,0 3.24959,0.824239 1.44005,0.814765 2.24534,2.330607 0.80529,1.506368 0.80529,3.429593 v 0.634759 q 0,1.923224 -0.79582,3.420118 -0.78634,1.496894 -2.22639,2.321134 -1.44005,0.82424 -3.249588,0.83371 z m 2.842204,-11.491971 v 9.208741 h 1.373732 q 1.667422,0 2.548512,-1.089512 0.88108,-1.089511 0.90003,-3.11695 v -0.729499 q 0,-2.103231 -0.87161,-3.183268 -0.87161,-1.089512 -2.54851,-1.089512 z M 85.077668,100.65677 q 0,-0.6537 0.435805,-1.061086 0.445278,-0.407383 1.108459,-0.407383 0.672655,0 1.10846,0.407383 0.445278,0.407386 0.445278,1.061086 0,0.64424 -0.435804,1.05162 -0.435805,0.39791 -1.117934,0.39791 -0.672655,0 -1.108459,-0.39791 -0.435805,-0.40738 -0.435805,-1.05162 z m 0.265278,-4.291725 h -5.457031 v 5.637035 H 77.043711 V 88.20792 h 8.981364 v 2.302185 h -6.13916 v 3.562229 h 5.457031 z M 63.808508,92.869134 q 1.089512,-1.307414 2.73799,-1.307414 3.334853,0 3.382223,3.874872 v 6.565488 h -2.73799 v -6.489696 q 0,-0.881083 -0.37896,-1.29794 -0.378961,-0.42633 -1.260044,-0.42633 -1.2032,0 -1.743219,0.928453 v 7.285513 H 61.070519 V 87.449999 h 2.737989 z m -4.358045,4.102248 q 0,2.368503 -1.080038,3.799078 -1.070563,1.4211 -2.899048,1.4211 -1.553738,0 -2.510613,-1.08003 v 4.83174 h -2.73799 V 91.751201 h 2.539036 l 0.09474,1.004245 q 0.994771,-1.193726 2.595879,-1.193726 1.894803,0 2.946418,1.402154 1.051616,1.402154 1.051616,3.865398 z m -2.73799,-0.198954 q 0,-1.430576 -0.511597,-2.207445 -0.502122,-0.776869 -1.468472,-0.776869 -1.288465,0 -1.77164,0.985297 v 4.196988 q 0.502123,1.013719 1.790588,1.013719 1.961121,0 1.961121,-3.21169 z m -12.268844,5.419132 q -2.254815,0 -3.675917,-1.3832 -1.411628,-1.383209 -1.411628,-3.685394 v -0.265272 q 0,-1.544264 0.596863,-2.756938 0.596863,-1.222148 1.686374,-1.875855 1.098986,-0.663181 2.501139,-0.663181 2.103231,0 3.306431,1.326362 1.212674,1.326362 1.212674,3.761183 v 1.117934 H 42.13197 q 0.132636,1.004245 0.795817,1.610582 0.672655,0.606337 1.695848,0.606337 1.58216,0 2.472718,-1.146356 l 1.345309,1.506368 q -0.61581,0.87161 -1.667426,1.36426 -1.051615,0.48317 -2.330607,0.48317 z m -0.312643,-8.41292 q -0.814765,0 -1.326361,0.549492 -0.502123,0.549493 -0.644233,1.572686 h 3.808553 v -0.217902 q -0.01895,-0.909505 -0.492649,-1.402154 -0.4737,-0.502122 -1.34531,-0.502122 z m -8.820307,5.390713 q 0,-0.502123 -0.502123,-0.786343 -0.492649,-0.293695 -1.591634,-0.521071 -3.656969,-0.767395 -3.656969,-3.107476 0,-1.364258 1.127407,-2.273763 1.136882,-0.91898 2.965366,-0.91898 1.951647,0 3.116951,0.91898 1.174777,0.918979 1.174777,2.387451 h -2.737989 q 0,-0.587389 -0.378961,-0.966349 -0.378961,-0.388435 -1.184252,-0.388435 -0.691603,0 -1.070563,0.312643 -0.378961,0.312642 -0.378961,0.795817 0,0.454752 0.426331,0.738973 0.435805,0.274746 1.458998,0.483174 1.023193,0.198955 1.72427,0.454753 2.169549,0.795817 2.169549,2.756938 0,1.402155 -1.203199,2.273765 -1.2032,0.86213 -3.107477,0.86213 -1.288465,0 -2.292711,-0.45475 -0.994771,-0.46423 -1.563212,-1.26004 -0.568441,-0.805294 -0.568441,-1.733748 h 2.59588 q 0.0379,0.729499 0.540019,1.117934 0.502122,0.388434 1.345309,0.388434 0.786344,0 1.184252,-0.293694 0.407383,-0.303168 0.407383,-0.786343 z M 18.342723,96.781902 q 0,-1.525316 0.587388,-2.719042 0.587389,-1.193726 1.686375,-1.847433 1.108459,-0.653707 2.567457,-0.653707 2.074809,0 3.382223,1.269518 1.316888,1.269518 1.468472,3.448541 l 0.01895,0.701077 q 0,2.359029 -1.316888,3.789604 -1.316888,1.4211 -3.533807,1.4211 -2.216919,0 -3.543281,-1.4211 -1.316887,-1.421101 -1.316887,-3.865396 z m 2.737989,0.198954 q 0,1.458998 0.549493,2.235867 0.549493,0.767395 1.572686,0.767395 0.994772,0 1.553738,-0.757921 0.558967,-0.767395 0.558967,-2.444295 0,-1.430576 -0.558967,-2.216919 -0.558966,-0.786343 -1.572686,-0.786343 -1.004245,0 -1.553738,0.786343 -0.549493,0.776869 -0.549493,2.415873 z M 13.672034,88.20792 h 2.842204 v 9.549805 q 0,1.316888 -0.587389,2.330605 -0.577915,1.00425 -1.639004,1.55374 -1.06109,0.54949 -2.396926,0.54949 -2.1884965,0 -3.4106442,-1.10846 -1.2221477,-1.11793 -1.2221477,-3.154843 h 2.8611519 q 0,1.01372 0.426331,1.496894 0.42633,0.483175 1.345309,0.483175 0.814766,0 1.29794,-0.558967 0.483175,-0.558967 0.483175,-1.591634 z"
         inkscape:connector-curvature="0" />
    </g>
  </g>
</svg>
