<?xml version="1.0" encoding="UTF-8" standalone="no"?>
<!-- Created with Inkscape (http://www.inkscape.org/) -->

<svg
   xmlns:dc="http://purl.org/dc/elements/1.1/"
   xmlns:cc="http://creativecommons.org/ns#"
   xmlns:rdf="http://www.w3.org/1999/02/22-rdf-syntax-ns#"
   xmlns:svg="http://www.w3.org/2000/svg"
   xmlns="http://www.w3.org/2000/svg"
   xmlns:sodipodi="http://sodipodi.sourceforge.net/DTD/sodipodi-0.dtd"
   xmlns:inkscape="http://www.inkscape.org/namespaces/inkscape"
   width="192.97591mm"
   height="18.758272mm"
   viewBox="0 0 192.97591 18.758272"
   version="1.1"
   id="svg833"
   inkscape:version="0.92.2 5c3e80d, 2017-08-06"
   sodipodi:docname="pathLogo2.svg">
  <defs
     id="defs827" />
  <sodipodi:namedview
     id="base"
     pagecolor="#ffffff"
     bordercolor="#666666"
     borderopacity="1.0"
     inkscape:pageopacity="0.0"
     inkscape:pageshadow="2"
     inkscape:zoom="1"
     inkscape:cx="453.08783"
     inkscape:cy="-228.6034"
     inkscape:document-units="mm"
     inkscape:current-layer="layer3"
     showgrid="false"
     inkscape:window-width="2560"
     inkscape:window-height="1367"
     inkscape:window-x="0"
     inkscape:window-y="0"
     inkscape:window-maximized="1" />
  <metadata
     id="metadata830">
    <rdf:RDF>
      <cc:Work
         rdf:about="">
        <dc:format>image/svg+xml</dc:format>
        <dc:type
           rdf:resource="http://purl.org/dc/dcmitype/StillImage" />
        <dc:title></dc:title>
      </cc:Work>
    </rdf:RDF>
  </metadata>
  <g
     inkscape:groupmode="layer"
     id="layer3"
     inkscape:label="Layer 3"
     transform="translate(-12.152709,-69.59041)">
    <g
       aria-label="Joseph F. DePumpo III"
       style="font-style:normal;font-weight:normal;font-size:10.58333302px;line-height:1.25;font-family:sans-serif;letter-spacing:0px;word-spacing:0px;fill:none;fill-opacity:0.981982;stroke:#01a95b;stroke-width:0.26499999;stroke-miterlimit:4;stroke-dasharray:none;stroke-opacity:0.93693692"
       id="text1392">
      <path
         d="m 18.699115,70.480831 h 2.842204 v 9.549805 q 0,1.316888 -0.587388,2.330607 -0.577915,1.004246 -1.639005,1.553738 -1.061089,0.549493 -2.396925,0.549493 -2.188497,0 -3.410645,-1.108459 -1.222147,-1.117934 -1.222147,-3.154847 h 2.861152 q 0,1.01372 0.42633,1.496894 0.426331,0.483175 1.34531,0.483175 0.814765,0 1.29794,-0.558967 0.483174,-0.558967 0.483174,-1.591634 z"
         style="font-style:normal;font-variant:normal;font-weight:bold;font-stretch:normal;font-size:19.40277863px;font-family:roboto;-inkscape-font-specification:'roboto Bold';fill:none;fill-opacity:0.981982;stroke:#01a95b;stroke-width:0.26499999;stroke-miterlimit:4;stroke-dasharray:none;stroke-opacity:0.93693692"
         id="path1433"
         inkscape:connector-curvature="0" />
      <path
         d="m 23.369804,79.054813 q 0,-1.525316 0.587389,-2.719042 0.587389,-1.193726 1.686374,-1.847433 1.10846,-0.653706 2.567458,-0.653706 2.074809,0 3.382222,1.269517 1.316888,1.269518 1.468472,3.448541 l 0.01895,0.701077 q 0,2.359029 -1.316887,3.789605 -1.316888,1.421102 -3.533807,1.421102 -2.216919,0 -3.543281,-1.421102 -1.316888,-1.421102 -1.316888,-3.865397 z m 2.73799,0.198954 q 0,1.458998 0.549493,2.235867 0.549492,0.767395 1.572686,0.767395 0.994771,0 1.553738,-0.757921 0.558967,-0.767395 0.558967,-2.444295 0,-1.430576 -0.558967,-2.216919 -0.558967,-0.786343 -1.572686,-0.786343 -1.004246,0 -1.553738,0.786343 -0.549493,0.776869 -0.549493,2.415873 z"
         style="font-style:normal;font-variant:normal;font-weight:bold;font-stretch:normal;font-size:19.40277863px;font-family:roboto;-inkscape-font-specification:'roboto Bold';fill:none;fill-opacity:0.981982;stroke:#01a95b;stroke-width:0.26499999;stroke-miterlimit:4;stroke-dasharray:none;stroke-opacity:0.93693692"
         id="path1435"
         inkscape:connector-curvature="0" />
      <path
         d="m 40.33776,81.442264 q 0,-0.502123 -0.502123,-0.786343 -0.492648,-0.293694 -1.591634,-0.521071 -3.656969,-0.767395 -3.656969,-3.107476 0,-1.364258 1.127408,-2.273763 1.136881,-0.918979 2.965366,-0.918979 1.951647,0 3.11695,0.918979 1.174778,0.918979 1.174778,2.387451 h -2.73799 q 0,-0.587389 -0.378961,-0.966349 -0.37896,-0.388435 -1.184251,-0.388435 -0.691603,0 -1.070564,0.312643 -0.37896,0.312642 -0.37896,0.795817 0,0.454752 0.42633,0.738973 0.435805,0.274746 1.458998,0.483174 1.023194,0.198955 1.724271,0.454753 2.169549,0.795817 2.169549,2.756938 0,1.402154 -1.2032,2.273763 -1.203199,0.862135 -3.107476,0.862135 -1.288466,0 -2.292711,-0.454752 -0.994772,-0.464227 -1.563212,-1.260044 -0.568441,-0.805291 -0.568441,-1.733745 h 2.595879 q 0.0379,0.729499 0.540019,1.117934 0.502123,0.388434 1.34531,0.388434 0.786343,0 1.184252,-0.293694 0.407382,-0.303168 0.407382,-0.786343 z"
         style="font-style:normal;font-variant:normal;font-weight:bold;font-stretch:normal;font-size:19.40277863px;font-family:roboto;-inkscape-font-specification:'roboto Bold';fill:none;fill-opacity:0.981982;stroke:#01a95b;stroke-width:0.26499999;stroke-miterlimit:4;stroke-dasharray:none;stroke-opacity:0.93693692"
         id="path1437"
         inkscape:connector-curvature="0" />
      <path
         d="m 49.47071,84.464474 q -2.254815,0 -3.675917,-1.383206 -1.411628,-1.383206 -1.411628,-3.685391 v -0.265272 q 0,-1.544264 0.596863,-2.756938 0.596863,-1.222148 1.686375,-1.875855 1.098985,-0.66318 2.501139,-0.66318 2.103231,0 3.30643,1.326361 1.212674,1.326362 1.212674,3.761184 v 1.117933 h -6.527595 q 0.132636,1.004245 0.795817,1.610582 0.672655,0.606337 1.695849,0.606337 1.58216,0 2.472717,-1.146355 l 1.34531,1.506368 q -0.615811,0.871609 -1.667426,1.364257 -1.051616,0.483175 -2.330608,0.483175 z m -0.312642,-8.412923 q -0.814765,0 -1.326362,0.549492 -0.502123,0.549493 -0.644233,1.572687 h 3.808553 v -0.217903 q -0.01895,-0.909505 -0.492648,-1.402154 -0.473701,-0.502122 -1.34531,-0.502122 z"
         style="font-style:normal;font-variant:normal;font-weight:bold;font-stretch:normal;font-size:19.40277863px;font-family:roboto;-inkscape-font-specification:'roboto Bold';fill:none;fill-opacity:0.981982;stroke:#01a95b;stroke-width:0.26499999;stroke-miterlimit:4;stroke-dasharray:none;stroke-opacity:0.93693692"
         id="path1439"
         inkscape:connector-curvature="0" />
      <path
         d="m 64.477544,79.244293 q 0,2.368503 -1.080037,3.799079 -1.070564,1.421102 -2.899048,1.421102 -1.553738,0 -2.510614,-1.080037 v 4.831746 H 55.249856 V 74.024112 h 2.539035 l 0.09474,1.004245 q 0.994772,-1.193725 2.59588,-1.193725 1.894802,0 2.946418,1.402153 1.051615,1.402154 1.051615,3.865398 z m -2.737989,-0.198954 q 0,-1.430576 -0.511597,-2.207445 -0.502123,-0.776869 -1.468472,-0.776869 -1.288466,0 -1.771641,0.985297 v 4.196988 q 0.502123,1.013719 1.790589,1.013719 1.961121,0 1.961121,-3.21169 z"
         style="font-style:normal;font-variant:normal;font-weight:bold;font-stretch:normal;font-size:19.40277863px;font-family:roboto;-inkscape-font-specification:'roboto Bold';fill:none;fill-opacity:0.981982;stroke:#01a95b;stroke-width:0.26499999;stroke-miterlimit:4;stroke-dasharray:none;stroke-opacity:0.93693692"
         id="path1441"
         inkscape:connector-curvature="0" />
      <path
         d="m 68.83559,75.142045 q 1.089511,-1.307413 2.73799,-1.307413 3.334852,0 3.382222,3.874871 v 6.565491 h -2.737989 v -6.489699 q 0,-0.881083 -0.378961,-1.29794 -0.378961,-0.42633 -1.260044,-0.42633 -1.203199,0 -1.743218,0.928453 v 7.285516 H 66.0976 V 69.72291 h 2.73799 z"
         style="font-style:normal;font-variant:normal;font-weight:bold;font-stretch:normal;font-size:19.40277863px;font-family:roboto;-inkscape-font-specification:'roboto Bold';fill:none;fill-opacity:0.981982;stroke:#01a95b;stroke-width:0.26499999;stroke-miterlimit:4;stroke-dasharray:none;stroke-opacity:0.93693692"
         id="path1443"
         inkscape:connector-curvature="0" />
      <path
         d="m 90.370028,78.637956 h -5.457032 v 5.637038 H 82.070792 V 70.480831 h 8.981364 v 2.302185 h -6.13916 v 3.562229 h 5.457032 z"
         style="font-style:normal;font-variant:normal;font-weight:bold;font-stretch:normal;font-size:19.40277863px;font-family:roboto;-inkscape-font-specification:'roboto Bold';fill:none;fill-opacity:0.981982;stroke:#01a95b;stroke-width:0.26499999;stroke-miterlimit:4;stroke-dasharray:none;stroke-opacity:0.93693692"
         id="path1445"
         inkscape:connector-curvature="0" />
      <path
         d="m 90.10475,82.929684 q 0,-0.653707 0.435804,-1.061089 0.445279,-0.407383 1.10846,-0.407383 0.672655,0 1.108459,0.407383 0.445279,0.407382 0.445279,1.061089 0,0.644233 -0.435805,1.051615 -0.435804,0.397909 -1.117933,0.397909 -0.672655,0 -1.10846,-0.397909 -0.435804,-0.407382 -0.435804,-1.051615 z"
         style="font-style:normal;font-variant:normal;font-weight:bold;font-stretch:normal;font-size:19.40277863px;font-family:roboto;-inkscape-font-specification:'roboto Bold';fill:none;fill-opacity:0.981982;stroke:#01a95b;stroke-width:0.26499999;stroke-miterlimit:4;stroke-dasharray:none;stroke-opacity:0.93693692"
         id="path1447"
         inkscape:connector-curvature="0" />
      <path
         d="M 100.63985,84.274994 V 70.480831 h 4.24436 q 1.81901,0 3.24959,0.824239 1.44005,0.814765 2.24534,2.330607 0.80529,1.506368 0.80529,3.429593 v 0.634759 q 0,1.923225 -0.79582,3.420119 -0.78634,1.496894 -2.22639,2.321133 -1.44005,0.824239 -3.24959,0.833713 z m 2.84221,-11.491978 v 9.208741 h 1.37373 q 1.66743,0 2.54851,-1.089512 0.88108,-1.089511 0.90003,-3.11695 v -0.729499 q 0,-2.103231 -0.87161,-3.183268 -0.87161,-1.089512 -2.54851,-1.089512 z"
         style="font-style:normal;font-variant:normal;font-weight:bold;font-stretch:normal;font-size:19.40277863px;font-family:roboto;-inkscape-font-specification:'roboto Bold';fill:none;fill-opacity:0.981982;stroke:#01a95b;stroke-width:0.26499999;stroke-miterlimit:4;stroke-dasharray:none;stroke-opacity:0.93693692"
         id="path1449"
         inkscape:connector-curvature="0" />
      <path
         d="m 117.79729,84.464474 q -2.25481,0 -3.67592,-1.383206 -1.41162,-1.383206 -1.41162,-3.685391 v -0.265272 q 0,-1.544264 0.59686,-2.756938 0.59686,-1.222148 1.68637,-1.875855 1.09899,-0.66318 2.50114,-0.66318 2.10323,0 3.30643,1.326361 1.21268,1.326362 1.21268,3.761184 v 1.117933 h -6.5276 q 0.13264,1.004245 0.79582,1.610582 0.67265,0.606337 1.69585,0.606337 1.58216,0 2.47271,-1.146355 l 1.34531,1.506368 q -0.61581,0.871609 -1.66742,1.364257 -1.05162,0.483175 -2.33061,0.483175 z m -0.31264,-8.412923 q -0.81477,0 -1.32636,0.549492 -0.50213,0.549493 -0.64424,1.572687 h 3.80856 v -0.217903 q -0.019,-0.909505 -0.49265,-1.402154 -0.4737,-0.502122 -1.34531,-0.502122 z"
         style="font-style:normal;font-variant:normal;font-weight:bold;font-stretch:normal;font-size:19.40277863px;font-family:roboto;-inkscape-font-specification:'roboto Bold';fill:none;fill-opacity:0.981982;stroke:#01a95b;stroke-width:0.26499999;stroke-miterlimit:4;stroke-dasharray:none;stroke-opacity:0.93693692"
         id="path1451"
         inkscape:connector-curvature="0" />
      <path
         d="m 126.59865,79.414825 v 4.860169 h -2.8422 V 70.480831 h 5.38124 q 1.55373,0 2.72851,0.568441 1.18425,0.568441 1.81901,1.620056 0.63476,1.042141 0.63476,2.377977 0,2.027439 -1.39268,3.202217 -1.38321,1.165303 -3.83697,1.165303 z m 0,-2.302185 h 2.53904 q 1.1274,0 1.71479,-0.530545 0.59686,-0.530544 0.59686,-1.515842 0,-1.013719 -0.59686,-1.639004 -0.59686,-0.625285 -1.64848,-0.644233 h -2.60535 z"
         style="font-style:normal;font-variant:normal;font-weight:bold;font-stretch:normal;font-size:19.40277863px;font-family:roboto;-inkscape-font-specification:'roboto Bold';fill:none;fill-opacity:0.981982;stroke:#01a95b;stroke-width:0.26499999;stroke-miterlimit:4;stroke-dasharray:none;stroke-opacity:0.93693692"
         id="path1453"
         inkscape:connector-curvature="0" />
      <path
         d="m 142.2213,83.232852 q -1.01372,1.231622 -2.80431,1.231622 -1.64848,0 -2.52009,-0.947401 -0.86213,-0.947401 -0.88108,-2.775886 v -6.717075 h 2.73799 v 6.622335 q 0,1.601108 1.459,1.601108 1.39268,0 1.91375,-0.966349 v -7.257094 h 2.74746 v 10.250882 h -2.57693 z"
         style="font-style:normal;font-variant:normal;font-weight:bold;font-stretch:normal;font-size:19.40277863px;font-family:roboto;-inkscape-font-specification:'roboto Bold';fill:none;fill-opacity:0.981982;stroke:#01a95b;stroke-width:0.26499999;stroke-miterlimit:4;stroke-dasharray:none;stroke-opacity:0.93693692"
         id="path1455"
         inkscape:connector-curvature="0" />
      <path
         d="m 149.52576,74.024112 0.0853,1.146355 q 1.08951,-1.335835 2.94642,-1.335835 1.98007,0 2.71904,1.563212 1.08004,-1.563212 3.07905,-1.563212 1.66743,0 2.4822,0.975823 0.81476,0.966349 0.81476,2.917996 v 6.546543 h -2.74746 v -6.537069 q 0,-0.871609 -0.34107,-1.269518 -0.34106,-0.407382 -1.2032,-0.407382 -1.23162,0 -1.70532,1.174777 l 0.009,7.039192 h -2.73799 v -6.527595 q 0,-0.890557 -0.35053,-1.288466 -0.35054,-0.397908 -1.19373,-0.397908 -1.1653,0 -1.68637,0.966349 v 7.24762 h -2.73799 V 74.024112 Z"
         style="font-style:normal;font-variant:normal;font-weight:bold;font-stretch:normal;font-size:19.40277863px;font-family:roboto;-inkscape-font-specification:'roboto Bold';fill:none;fill-opacity:0.981982;stroke:#01a95b;stroke-width:0.26499999;stroke-miterlimit:4;stroke-dasharray:none;stroke-opacity:0.93693692"
         id="path1457"
         inkscape:connector-curvature="0" />
      <path
         d="m 172.97394,79.244293 q 0,2.368503 -1.08003,3.799079 -1.07057,1.421102 -2.89905,1.421102 -1.55374,0 -2.51062,-1.080037 v 4.831746 h -2.73799 V 74.024112 h 2.53904 l 0.0947,1.004245 q 0.99477,-1.193725 2.59588,-1.193725 1.8948,0 2.94642,1.402153 1.05161,1.402154 1.05161,3.865398 z m -2.73799,-0.198954 q 0,-1.430576 -0.51159,-2.207445 -0.50213,-0.776869 -1.46848,-0.776869 -1.28846,0 -1.77164,0.985297 v 4.196988 q 0.50213,1.013719 1.79059,1.013719 1.96112,0 1.96112,-3.21169 z"
         style="font-style:normal;font-variant:normal;font-weight:bold;font-stretch:normal;font-size:19.40277863px;font-family:roboto;-inkscape-font-specification:'roboto Bold';fill:none;fill-opacity:0.981982;stroke:#01a95b;stroke-width:0.26499999;stroke-miterlimit:4;stroke-dasharray:none;stroke-opacity:0.93693692"
         id="path1459"
         inkscape:connector-curvature="0" />
      <path
         d="m 174.23399,79.054813 q 0,-1.525316 0.58739,-2.719042 0.58738,-1.193726 1.68637,-1.847433 1.10846,-0.653706 2.56746,-0.653706 2.07481,0 3.38222,1.269517 1.31689,1.269518 1.46847,3.448541 l 0.0189,0.701077 q 0,2.359029 -1.31689,3.789605 -1.31689,1.421102 -3.5338,1.421102 -2.21692,0 -3.54329,-1.421102 -1.31688,-1.421102 -1.31688,-3.865397 z m 2.73799,0.198954 q 0,1.458998 0.54949,2.235867 0.54949,0.767395 1.57269,0.767395 0.99477,0 1.55373,-0.757921 0.55897,-0.767395 0.55897,-2.444295 0,-1.430576 -0.55897,-2.216919 -0.55896,-0.786343 -1.57268,-0.786343 -1.00425,0 -1.55374,0.786343 -0.54949,0.776869 -0.54949,2.415873 z"
         style="font-style:normal;font-variant:normal;font-weight:bold;font-stretch:normal;font-size:19.40277863px;font-family:roboto;-inkscape-font-specification:'roboto Bold';fill:none;fill-opacity:0.981982;stroke:#01a95b;stroke-width:0.26499999;stroke-miterlimit:4;stroke-dasharray:none;stroke-opacity:0.93693692"
         id="path1461"
         inkscape:connector-curvature="0" />
      <path
         d="m 193.70308,84.274994 h -2.8422 V 70.480831 h 2.8422 z"
         style="font-style:normal;font-variant:normal;font-weight:bold;font-stretch:normal;font-size:19.40277863px;font-family:roboto;-inkscape-font-specification:'roboto Bold';fill:none;fill-opacity:0.981982;stroke:#01a95b;stroke-width:0.26499999;stroke-miterlimit:4;stroke-dasharray:none;stroke-opacity:0.93693692"
         id="path1463"
         inkscape:connector-curvature="0" />
      <path
         d="m 199.34959,84.274994 h -2.8422 V 70.480831 h 2.8422 z"
         style="font-style:normal;font-variant:normal;font-weight:bold;font-stretch:normal;font-size:19.40277863px;font-family:roboto;-inkscape-font-specification:'roboto Bold';fill:none;fill-opacity:0.981982;stroke:#01a95b;stroke-width:0.26499999;stroke-miterlimit:4;stroke-dasharray:none;stroke-opacity:0.93693692"
         id="path1465"
         inkscape:connector-curvature="0" />
      <path
         d="m 204.99611,84.274994 h -2.8422 V 70.480831 h 2.8422 z"
         style="font-style:normal;font-variant:normal;font-weight:bold;font-stretch:normal;font-size:19.40277863px;font-family:roboto;-inkscape-font-specification:'roboto Bold';fill:none;fill-opacity:0.981982;stroke:#01a95b;stroke-width:0.26499999;stroke-miterlimit:4;stroke-dasharray:none;stroke-opacity:0.93693692"
         id="path1467"
         inkscape:connector-curvature="0" />
    </g>
  </g>
</svg>
